<?xml version="1.0" encoding="UTF-8"?>
<svg width="280px" height="318px" viewBox="0 0 280 318" version="1.1" xmlns="http://www.w3.org/2000/svg" xmlns:xlink="http://www.w3.org/1999/xlink">
    <!-- Generator: Sketch 48.2 (47327) - http://www.bohemiancoding.com/sketch -->
    <title>Group</title>
    <desc>Created with Sketch.</desc>
    <defs>
        <path d="M167.713209,8.69459369 L247.713209,50.3558015 C267.554629,60.6885206 280,81.2014603 280,103.572134 L280,216.427866 C280,238.79854 267.554629,259.311479 247.713209,269.644199 L167.713209,311.305406 C150.344745,320.350296 129.655255,320.350296 112.286791,311.305406 L32.2867913,269.644199 C12.445371,259.311479 5.24776089e-14,238.79854 4.97379915e-14,216.427866 L0,103.572134 C-1.26741923e-14,81.2014603 12.445371,60.6885206 32.2867913,50.3558015 L112.286791,8.69459369 C129.655255,-0.350296047 150.344745,-0.350296047 167.713209,8.69459369 Z" id="path-1"></path>
    </defs>
    <g id="Page-1" stroke="none" stroke-width="1" fill="none" fill-rule="evenodd">
        <g id="Group" transform="translate(0.000000, -1.000000)">
            <text id="v" font-family="ArialRoundedMTBold, Arial Rounded MT Bold" font-size="75" font-weight="normal" letter-spacing="-0.6249999" fill="#FFFFFF">
                <tspan x="85.4877929" y="252">v</tspan>
            </text>
            <g id="Path-2">
                <mask id="mask-2" fill="white">
                    <use xlink:href="#path-1"></use>
                </mask>
                <use id="Mask" fill="#028BCA" xlink:href="#path-1"></use>
                <polygon fill="#016D9D" mask="url(#mask-2)" points="165.597972 81.7129847 282.984587 199.0996 282.984587 253.679866 155.645493 323.082652 76.3590575 323.082652 31.8987712 137.678741 51.8854659 126.590557 119.05771 192.799172 144.041078 99.7401574"></polygon>
            </g>
            <path d="M65.9507341,150.308014 C67.9639124,156.282608 74.3820438,179.394184 85.2051281,219.642743 L85.205144,219.642738 C85.3485596,220.176068 85.8971699,220.492155 86.4304994,220.34874 C86.8070368,220.247487 87.0903816,219.936605 87.1563779,219.552318 C95.3882342,171.619344 102.800033,137.509879 109.391773,117.223922 C113.171631,105.591481 115.556065,95.3664288 119.306956,88.2564313 C123.057846,81.1464338 132.352506,76.5513869 135.190889,75.1027959 C138.029271,73.6542049 144.350162,72.7766564 149.047634,73.3895442 C153.745106,74.0024319 158.760343,75.155477 162.44363,78.6873957 C166.126916,82.2193144 169.823145,86.1732251 169.823145,90.815145 C169.823145,99.9758733 156.517704,107.139308 153.357399,108.515471 C150.197093,109.891634 146.329345,117.602649 145.029837,121.72379 C135.772998,151.08007 126.165779,195.788603 116.208178,255.849389 C115.098147,258.674924 113.660173,262.257245 111.894214,266.59646 C110.128254,270.935674 108.1605,274.644133 105.990893,277.721948 C103.821286,280.799763 101.147159,283.196386 97.9684323,284.911889 C94.7897055,286.627393 90.9298808,287.485132 86.3888425,287.485132 C80.5359486,287.485132 75.8688404,286.148068 72.3873776,283.473901 C68.9059149,280.799734 66.3326985,277.873331 64.6676511,274.694604 C63.0026037,271.515877 60.2023387,265.234202 56.2667722,255.849389 C39.2655059,193.908518 30.7648728,162.938083 30.7648728,162.938083 C30.7648728,162.938083 28.9232435,158.094345 27.9645799,155.672458 C27.0059162,153.250571 25.3069377,150.538409 24.65101,148.01561 C23.9950822,145.492811 23.1685558,143.780563 23.1685558,141.964147 C23.1685558,139.138612 23.4658115,137.00213 25.1813148,134.227051 C26.8968182,131.451972 29.2682138,129.181487 32.2955726,127.415527 C35.3229315,125.649568 38.6025211,124.766602 42.1344398,124.766602 C48.9964533,124.766602 53.7140168,126.734355 56.2872719,130.669922 C58.8605269,134.605488 62.8224632,141.024114 65.9507341,150.308014 Z" id="v" fill="#FFFFFF"></path>
            <text id="emy" transform="translate(189.965906, 221.138661) rotate(-20.000000) translate(-189.965906, -221.138661) " font-family="ArialRoundedMTBold, Arial Rounded MT Bold" font-size="75" font-weight="normal" letter-spacing="-0.62499994" fill="#FFFFFF">
                <tspan x="115.116052" y="248.638661">emy</tspan>
            </text>
        </g>
    </g>
</svg>